<?xml version="1.0" encoding="UTF-8" standalone="no"?>
<!DOCTYPE svg PUBLIC "-//W3C//DTD SVG 1.1//EN" "http://www.w3.org/Graphics/SVG/1.1/DTD/svg11.dtd">
<svg width="100%" height="100%" viewBox="0 0 3051 3051" version="1.1" xmlns="http://www.w3.org/2000/svg" xmlns:xlink="http://www.w3.org/1999/xlink" xml:space="preserve" xmlns:serif="http://www.serif.com/" style="fill-rule:evenodd;clip-rule:evenodd;">
    <g transform="matrix(1,0,0,1,36.895852,36.896685)">
        <g id="REJILLA">
        </g>
        <g id="LOGOS" transform="matrix(8.333333,0,0,8.333333,0,0)">
            <g transform="matrix(1,0,0,1,178.583,1.4169)">
                <path d="M0,354.331C97.689,354.331 177.165,274.855 177.165,177.166C177.165,79.476 97.689,0 0,0C-97.69,0 -177.166,79.476 -177.166,177.166C-177.166,274.855 -97.69,354.331 0,354.331" style="fill:white;fill-rule:nonzero;"/>
            </g>
            <g transform="matrix(1,0,0,1,178.583,1.4169)">
                <path d="M0,354.331C97.689,354.331 177.165,274.855 177.165,177.166C177.165,79.476 97.689,0 0,0C-97.69,0 -177.166,79.476 -177.166,177.166C-177.166,274.855 -97.69,354.331 0,354.331Z" style="fill:none;fill-rule:nonzero;stroke:rgb(247,147,29);stroke-width:2.83px;"/>
            </g>
            <g transform="matrix(1,0,0,1,267.2828,272.6071)">
                <path d="M0,13.23L-1.202,13.917C-1.031,14.175 -0.859,14.605 -0.859,14.948C-0.859,18.127 -10.738,21.821 -17.955,21.821C-27.663,21.821 -35.996,16.237 -35.996,6.357C-35.996,-3.522 -27.663,-9.106 -17.955,-9.106C-12.285,-9.106 -3.436,-6.186 -2.921,-3.608C-2.835,-3.179 -2.749,-2.835 -2.749,-2.491L-1.89,-1.89L4.811,-12.285L3.523,-13.316C3.265,-12.972 2.835,-12.199 2.32,-12.199C1.89,-12.199 -0.257,-13.316 -3.78,-14.347C-7.302,-15.378 -12.199,-16.495 -17.955,-16.495C-32.474,-16.495 -45.446,-8.591 -45.446,6.615C-45.446,21.821 -32.474,29.725 -17.955,29.725C-6.872,29.725 2.749,22.938 4.038,22.938C4.382,22.938 4.639,23.024 4.983,23.024L5.67,22.336L0,13.23ZM-53.864,29.209L-53.864,27.663C-55.325,27.663 -56.098,27.147 -56.098,26.116L-56.098,-12.887C-56.098,-13.917 -55.325,-14.433 -53.864,-14.433L-53.864,-15.979L-68.125,-15.979L-68.125,-14.433C-66.665,-14.433 -65.892,-13.917 -65.892,-12.887L-65.892,26.116C-65.892,27.147 -66.665,27.663 -68.125,27.663L-68.125,29.209L-53.864,29.209ZM-121.904,26.116C-121.646,25.773 -121.217,25.429 -120.787,25.429C-118.21,25.429 -114.602,29.725 -101.372,29.725C-92.094,29.725 -77.918,26.804 -77.918,14.948C-77.918,-5.67 -112.798,7.045 -112.798,-3.866C-112.798,-7.646 -106.526,-9.106 -101.458,-9.106C-94.843,-9.106 -87.626,-6.271 -85.822,-3.608C-85.479,-3.093 -85.221,-2.406 -85.135,-1.632L-84.276,-1.289L-78.348,-12.027L-79.379,-12.715C-79.723,-12.371 -80.238,-12.199 -81.097,-12.199C-84.018,-12.199 -89.774,-16.495 -101.715,-16.495C-115.976,-16.495 -122.591,-9.364 -122.591,-2.234C-122.591,18.814 -87.712,5.67 -87.712,16.151C-87.712,21.391 -97.764,22.336 -101.544,22.336C-106.956,22.336 -115.461,19.673 -117.179,16.838C-117.437,16.409 -117.523,15.979 -117.523,15.464L-118.382,15.034L-123.107,25.429L-121.904,26.116ZM-137.624,13.23L-138.827,13.917C-138.655,14.175 -138.483,14.605 -138.483,14.948C-138.483,18.127 -148.363,21.821 -155.579,21.821C-165.287,21.821 -173.621,16.237 -173.621,6.357C-173.621,-3.522 -165.287,-9.106 -155.579,-9.106C-149.909,-9.106 -141.061,-6.186 -140.545,-3.608C-140.459,-3.179 -140.373,-2.835 -140.373,-2.491L-139.514,-1.89L-132.813,-12.285L-134.102,-13.316C-134.36,-12.972 -134.789,-12.199 -135.305,-12.199C-135.734,-12.199 -137.882,-13.316 -141.404,-14.347C-144.927,-15.378 -149.824,-16.495 -155.579,-16.495C-170.098,-16.495 -183.071,-8.591 -183.071,6.615C-183.071,21.821 -170.098,29.725 -155.579,29.725C-144.497,29.725 -134.875,22.938 -133.587,22.938C-133.243,22.938 -132.985,23.024 -132.642,23.024L-131.954,22.336L-137.624,13.23Z" style="fill:rgb(176,14,30);fill-rule:nonzero;"/>
            </g>
            <g transform="matrix(1,0,0,1,0,133.247)">
                <rect x="49.039" y="111.144" width="259.087" height="1.63" style="fill:rgb(253,198,137);"/>
            </g>
            <g transform="matrix(0.116261,-0.029722,0.029722,0.116261,111.853512,50.039958)">
                <g transform="matrix(203.594548,0,0,203.594548,256.091199,232.609058)">
                </g>
                <text x="109.062px" y="232.609px" style="font-family:'Helvetica';font-size:203.595px;fill:rgb(247,147,29);">C</text>
            </g>
            <g transform="matrix(0.100335,-0.065825,0.065825,0.100335,102.888244,56.18243)">
                <g transform="matrix(203.596937,0,0,203.596937,119.303469,263.552673)">
                </g>
                <text x="62.738px" y="263.553px" style="font-family:'Helvetica';font-size:203.597px;fill:rgb(247,147,29);">I</text>
            </g>
            <g transform="matrix(0.076519,-0.092438,0.092438,0.076519,91.154002,68.585189)">
                <g transform="matrix(203.595739,0,0,203.595739,141.811497,275.526644)">
                </g>
                <text x="6.015px" y="275.527px" style="font-family:'Helvetica';font-size:203.596px;fill:rgb(247,147,29);">S</text>
            </g>
            <g transform="matrix(0.032608,-0.115485,0.115485,0.032608,84.413552,87.62614)">
                <g transform="matrix(203.593836,0,0,203.593836,77.26598,265.407567)">
                </g>
                <text x="-69.763px" y="265.408px" style="font-family:'Helvetica';font-size:203.594px;fill:rgb(247,147,29);">C</text>
            </g>
            <g transform="matrix(1,0,0,1,148.7164,148.8914)">
                <path d="M0,-87.822C24.251,-87.822 43.91,-68.163 43.91,-43.912C43.91,-19.661 24.251,0 0,0C-24.251,0 -43.911,-19.661 -43.911,-43.912" style="fill:none;fill-rule:nonzero;stroke:rgb(247,147,29);stroke-width:2.74px;stroke-miterlimit:10;"/>
            </g>
            <g transform="matrix(1,0,0,1,209.2537,61.0693)">
                <path d="M0,87.822C-24.251,87.822 -43.91,68.162 -43.91,43.911C-43.91,19.659 -24.251,0 0,0C24.251,0 43.911,19.659 43.911,43.911" style="fill:none;fill-rule:nonzero;stroke:rgb(247,147,29);stroke-width:2.74px;stroke-miterlimit:10;"/>
            </g>
            <g transform="matrix(0.114585,-0.035641,0.035641,0.114585,184.861241,124.031296)">
                <g transform="matrix(203.595729,0,0,203.595729,305.758379,343.013429)">
                </g>
                <text x="158.728px" y="343.013px" style="font-family:'Helvetica';font-size:203.596px;fill:rgb(247,147,29);">H</text>
            </g>
            <g transform="matrix(0.036878,-0.114193,0.114193,0.036878,210.400905,109.668574)">
                <g transform="matrix(203.594277,0,0,203.594277,90.680785,411.855727)">
                </g>
                <text x="-45.115px" y="411.856px" style="font-family:'Helvetica';font-size:203.594px;fill:rgb(247,147,29);">B</text>
            </g>
            <g transform="matrix(0.084732,-0.084974,0.084974,0.084732,199.648951,120.065238)">
                <g transform="matrix(203.598052,0,0,203.598052,210.613305,403.028924)">
                </g>
                <text x="63.581px" y="403.029px" style="font-family:'Helvetica';font-size:203.598px;fill:rgb(247,147,29);">U</text>
            </g>
            <g transform="matrix(0.12,0,0,0.12,52.66184,152.779613)">
                <text x="636.843px" y="293.161px" style="font-family:'Helvetica';font-size:166.667px;fill:rgb(35,31,32);">B<tspan x="750.12px 798.537px 930.288px 1025.092px 1156.842px 1288.593px 1337.01px " y="293.161px 293.161px 293.161px 293.161px 293.161px 293.161px 293.161px ">IOLOGÍA</tspan></text>
                <text x="231.843px" y="481.161px" style="font-family:'Helvetica';font-size:166.667px;fill:rgb(35,31,32);">C<tspan x="355.989px 489.412px 632.032px 746.982px 871.128px 964.431px 1079.381px 1203.527px 1253.617px 1387.04px 1511.186px 1626.136px 1716.51px 1756.843px " y="481.161px 481.161px 481.161px 481.161px 481.161px 481.161px 481.161px 481.161px 481.161px 481.161px 481.161px 481.161px 481.161px 481.161px ">OMPUTACIONAL Y</tspan></text>
                <g transform="matrix(166.666667,0,0,166.666667,2037.267262,669.160723)">
                </g>
                <text x="59.843px" y="669.161px" style="font-family:'Helvetica';font-size:166.667px;fill:rgb(35,31,32);">B<tspan x="174.149px 223.595px 356.375px 405.821px 529.323px 634.27px 767.049px 890.552px 1032.527px 1146.833px 1251.78px 1301.226px 1424.729px 1529.92px 1571.01px 1629.652px 1743.958px 1867.46px 1981.766px " y="669.161px 669.161px 669.161px 669.161px 669.161px 669.161px 669.161px 669.161px 669.161px 669.161px 669.161px 669.161px 669.161px 669.161px 669.161px 669.161px 669.161px 669.161px 669.161px ">IOINFORMÁTICA (BCB)</tspan></text>
            </g>
        </g>
    </g>
</svg>
