<?xml version="1.0" encoding="UTF-8" standalone="no"?>
<!DOCTYPE svg PUBLIC "-//W3C//DTD SVG 1.1//EN" "http://www.w3.org/Graphics/SVG/1.1/DTD/svg11.dtd">
<svg width="100%" height="100%" viewBox="0 0 10629 2977" version="1.1" xmlns="http://www.w3.org/2000/svg" xmlns:xlink="http://www.w3.org/1999/xlink" xml:space="preserve" xmlns:serif="http://www.serif.com/" style="fill-rule:evenodd;clip-rule:evenodd;stroke-miterlimit:10;">
    <g id="REJILLA">
    </g>
    <g id="LOGOS" transform="matrix(8.333333,0,0,8.333333,0,0)">
        <rect x="0" y="0" width="918.305" height="357.165" style="fill:white;"/>
        <g transform="matrix(1,0,0,1,833.141,252.255)">
            <path d="M0,21.731L0.437,21.887C0.509,21.614 0.728,21.302 1.092,21.302C1.857,21.302 4.406,22.938 8.156,22.938C13.691,22.938 16.094,21.069 16.094,17.408C16.094,10.398 3.022,15.071 3.022,10.437C3.022,8.996 3.787,7.516 7.537,7.516C10.414,7.516 13.327,8.724 13.327,9.541C13.327,9.775 13.29,9.892 13.254,10.009L13.691,10.203L15.038,6.387L14.565,6.192C14.346,6.659 14.201,6.737 13.982,6.737C13.4,6.737 11.47,5.335 7.646,5.335C4.005,5.335 0.764,6.815 0.764,10.749C0.764,17.953 13.836,13.046 13.836,17.992C13.836,19.745 11.797,20.757 8.52,20.757C5.025,20.757 1.784,19.277 1.784,18.421C1.784,18.265 1.82,18.07 1.857,17.914L1.42,17.797L0,21.731ZM-5.863,15.461L-12.963,15.461L-9.54,7.283L-5.863,15.461ZM-14.529,22.704L-14.529,22.237C-15.257,22.237 -15.512,22.081 -15.512,21.77C-15.512,21.536 -15.221,21.069 -15.039,20.601L-13.801,17.642L-4.952,17.642L-3.46,20.913C-3.35,21.186 -3.241,21.419 -3.241,21.77C-3.241,22.081 -3.46,22.237 -4.333,22.237L-4.333,22.704L0.255,22.704L0.255,22.237C-0.51,22.237 -0.729,21.809 -0.874,21.458L-7.101,7.283C-7.21,7.01 -7.356,6.776 -7.356,6.504C-7.356,6.153 -6.882,6.036 -6.518,6.036L-6.518,5.569L-12.417,5.569L-12.417,5.959C-11.762,5.997 -11.507,6.27 -11.507,6.504C-11.507,6.698 -11.543,6.815 -11.689,7.166L-17.442,21.263C-17.66,21.848 -17.843,22.237 -18.607,22.237L-18.607,22.704L-14.529,22.704ZM-18.352,6.621L-18.789,6.465C-18.935,6.698 -19.117,6.893 -19.372,6.893C-19.7,6.893 -20.355,6.504 -21.302,6.153C-22.758,5.608 -23.923,5.335 -25.999,5.335C-30.951,5.335 -35.029,8.607 -35.029,14.176C-35.029,19.784 -31.097,22.938 -26.145,22.938C-21.52,22.938 -19.481,20.407 -18.607,20.407C-18.462,20.407 -18.279,20.446 -17.915,20.757L-17.515,20.446L-20.064,16.863L-20.428,17.096C-20.355,17.291 -20.282,17.603 -20.282,17.875C-20.282,18.537 -22.43,20.524 -26.254,20.524C-30.041,20.524 -32.626,17.797 -32.626,14.176C-32.626,10.554 -30.114,7.516 -25.926,7.516C-23.304,7.516 -20.501,9.113 -20.501,9.736C-20.501,9.931 -20.501,10.203 -20.573,10.398L-20.136,10.632L-18.352,6.621ZM-37.76,22.704L-37.76,22.237C-38.525,22.237 -38.67,22.042 -38.67,21.147L-38.67,7.127C-38.67,6.231 -38.525,6.036 -37.76,6.036L-37.76,5.569L-41.838,5.569L-41.838,6.036C-41.073,6.036 -40.928,6.231 -40.928,7.127L-40.928,21.147C-40.928,22.042 -41.073,22.237 -41.838,22.237L-41.838,22.704L-37.76,22.704ZM-44.46,4.634L-44.897,4.634C-44.897,5.296 -45.079,5.569 -45.807,5.569L-59.68,5.569L-59.68,6.036C-58.916,6.036 -58.77,6.231 -58.77,7.127L-58.77,21.147C-58.77,22.042 -58.916,22.237 -59.753,22.237L-59.753,22.704L-55.529,22.704L-55.529,22.237C-56.367,22.237 -56.512,22.042 -56.512,21.147L-56.512,15.149L-49.339,15.149C-48.611,15.149 -48.429,15.422 -48.429,15.928L-47.992,15.928L-47.992,12.112L-48.429,12.112C-48.429,12.696 -48.611,12.968 -49.339,12.968L-56.512,12.968L-56.512,7.75L-45.807,7.75C-45.079,7.75 -44.897,8.023 -44.897,8.685L-44.46,8.685L-44.46,4.634ZM-61.756,-1.908L-64.559,-1.908L-68.601,3.466L-66.744,3.466L-61.756,-1.908ZM-64.304,22.704L-64.304,22.237C-65.069,22.237 -65.215,22.042 -65.215,21.147L-65.215,7.127C-65.215,6.231 -65.069,6.036 -64.304,6.036L-64.304,5.569L-68.383,5.569L-68.383,6.036C-67.618,6.036 -67.472,6.231 -67.472,7.127L-67.472,21.147C-67.472,22.042 -67.618,22.237 -68.383,22.237L-68.383,22.704L-64.304,22.704ZM-70.385,4.634L-70.822,4.634C-70.822,5.296 -71.004,5.569 -71.733,5.569L-85.424,5.569C-86.152,5.569 -86.334,5.296 -86.334,4.634L-86.771,4.634L-86.771,8.685L-86.334,8.685C-86.334,8.023 -86.152,7.75 -85.424,7.75L-79.78,7.75L-79.78,21.147C-79.78,22.042 -79.925,22.237 -80.69,22.237L-80.69,22.704L-76.466,22.704L-76.466,22.237C-77.231,22.237 -77.377,22.042 -77.377,21.147L-77.377,7.75L-71.733,7.75C-71.004,7.75 -70.822,8.023 -70.822,8.685L-70.385,8.685L-70.385,4.634ZM-101.7,22.704L-101.7,22.237C-102.465,22.237 -102.683,22.042 -102.683,21.147L-102.683,8.607L-92.378,21.186C-92.123,21.497 -91.941,21.653 -91.941,21.887C-91.941,22.12 -92.014,22.237 -92.961,22.237L-92.961,22.704L-88.082,22.704L-88.082,22.237C-88.846,22.237 -89.065,22.042 -89.065,21.147L-89.065,7.127C-89.065,6.231 -88.846,6.036 -88.082,6.036L-88.082,5.569L-92.087,5.569L-92.087,6.036C-91.322,6.036 -91.104,6.231 -91.104,7.127L-91.104,19.16L-100.972,7.049C-101.227,6.737 -101.372,6.543 -101.372,6.387C-101.372,6.192 -101.154,6.036 -100.389,6.036L-100.389,5.569L-105.705,5.569L-105.705,6.036C-104.941,6.036 -104.722,6.231 -104.722,7.127L-104.722,21.147C-104.722,22.042 -104.941,22.237 -105.705,22.237L-105.705,22.704L-101.7,22.704ZM-124.13,21.147C-124.13,22.042 -124.276,22.237 -124.967,22.237L-124.967,22.704L-109.893,22.704C-109.164,22.704 -108.982,22.977 -108.982,23.639L-108.545,23.639L-108.545,19.589L-108.982,19.589C-108.982,20.251 -109.164,20.524 -109.893,20.524L-121.727,20.524L-121.727,14.994L-113.679,14.994C-112.951,14.994 -112.769,15.266 -112.769,15.928L-112.332,15.928L-112.332,11.878L-112.769,11.878C-112.769,12.54 -112.951,12.813 -113.679,12.813L-121.727,12.813L-121.727,7.75L-110.293,7.75C-109.565,7.75 -109.383,8.023 -109.383,8.685L-108.946,8.685L-108.946,4.634L-109.383,4.634C-109.383,5.296 -109.565,5.569 -110.293,5.569L-124.967,5.569L-124.967,6.036C-124.276,6.036 -124.13,6.231 -124.13,7.127L-124.13,21.147ZM-129.519,22.704L-129.519,22.237C-130.283,22.237 -130.429,22.042 -130.429,21.147L-130.429,7.127C-130.429,6.231 -130.283,6.036 -129.519,6.036L-129.519,5.569L-133.597,5.569L-133.597,6.036C-132.832,6.036 -132.687,6.231 -132.687,7.127L-132.687,21.147C-132.687,22.042 -132.832,22.237 -133.597,22.237L-133.597,22.704L-129.519,22.704ZM-140.114,15.85L-140.588,16.162C-140.515,16.279 -140.405,16.512 -140.405,16.707C-140.405,17.759 -143.537,20.29 -146.996,20.29C-151.475,20.29 -155.808,17.058 -155.808,12.345C-155.808,6.971 -151.584,4.634 -147.652,4.634C-143.792,4.634 -140.66,6.621 -140.66,7.477C-140.66,7.711 -140.77,7.867 -140.842,7.984L-140.369,8.217L-138.111,4.05L-138.548,3.739C-138.694,3.933 -138.73,4.089 -139.095,4.089C-139.495,4.089 -140.333,3.544 -141.753,3.038C-143.173,2.531 -145.103,1.986 -147.469,1.986C-154.424,1.986 -158.794,6.698 -158.794,11.956C-158.794,18.226 -154.133,22.938 -147.324,22.938C-141.243,22.938 -138.949,19.667 -138.439,19.667C-138.221,19.667 -138.039,19.745 -137.893,19.939L-137.42,19.589L-140.114,15.85ZM-184.574,21.731L-184.137,21.887C-184.064,21.614 -183.846,21.302 -183.482,21.302C-182.717,21.302 -180.168,22.938 -176.418,22.938C-170.883,22.938 -168.48,21.069 -168.48,17.408C-168.48,10.398 -181.552,15.071 -181.552,10.437C-181.552,8.996 -180.787,7.516 -177.037,7.516C-174.16,7.516 -171.247,8.724 -171.247,9.541C-171.247,9.775 -171.283,9.892 -171.32,10.009L-170.883,10.203L-169.536,6.387L-170.009,6.192C-170.227,6.659 -170.373,6.737 -170.592,6.737C-171.174,6.737 -173.104,5.335 -176.927,5.335C-180.569,5.335 -183.809,6.815 -183.809,10.749C-183.809,17.953 -170.737,13.046 -170.737,17.992C-170.737,19.745 -172.776,20.757 -176.053,20.757C-179.549,20.757 -182.79,19.277 -182.79,18.421C-182.79,18.265 -182.753,18.07 -182.717,17.914L-183.154,17.797L-184.574,21.731ZM-201.615,21.147C-201.615,22.042 -201.76,22.237 -202.452,22.237L-202.452,22.704L-187.377,22.704C-186.649,22.704 -186.467,22.977 -186.467,23.639L-186.03,23.639L-186.03,19.589L-186.467,19.589C-186.467,20.251 -186.649,20.524 -187.377,20.524L-199.212,20.524L-199.212,14.994L-191.164,14.994C-190.436,14.994 -190.254,15.266 -190.254,15.928L-189.817,15.928L-189.817,11.878L-190.254,11.878C-190.254,12.54 -190.436,12.813 -191.164,12.813L-199.212,12.813L-199.212,7.75L-187.778,7.75C-187.05,7.75 -186.868,8.023 -186.868,8.685L-186.431,8.685L-186.431,4.634L-186.868,4.634C-186.868,5.296 -187.05,5.569 -187.778,5.569L-202.452,5.569L-202.452,6.036C-201.76,6.036 -201.615,6.231 -201.615,7.127L-201.615,21.147ZM-219.894,22.704L-219.894,22.237C-220.658,22.237 -220.877,22.042 -220.877,21.147L-220.877,8.607L-210.572,21.186C-210.317,21.497 -210.135,21.653 -210.135,21.887C-210.135,22.12 -210.208,22.237 -211.155,22.237L-211.155,22.704L-206.275,22.704L-206.275,22.237C-207.04,22.237 -207.258,22.042 -207.258,21.147L-207.258,7.127C-207.258,6.231 -207.04,6.036 -206.275,6.036L-206.275,5.569L-210.281,5.569L-210.281,6.036C-209.516,6.036 -209.298,6.231 -209.298,7.127L-209.298,19.16L-219.165,7.049C-219.42,6.737 -219.566,6.543 -219.566,6.387C-219.566,6.192 -219.347,6.036 -218.583,6.036L-218.583,5.569L-223.899,5.569L-223.899,6.036C-223.134,6.036 -222.916,6.231 -222.916,7.127L-222.916,21.147C-222.916,22.042 -223.134,22.237 -223.899,22.237L-223.899,22.704L-219.894,22.704ZM-235.442,7.516C-231.291,7.516 -228.669,10.437 -228.669,14.098C-228.669,17.797 -231.291,20.757 -235.442,20.757C-239.593,20.757 -242.214,17.797 -242.214,14.098C-242.214,10.437 -239.593,7.516 -235.442,7.516M-235.442,5.335C-241.049,5.335 -244.618,9.308 -244.618,14.137C-244.618,18.966 -241.049,22.938 -235.442,22.938C-229.834,22.938 -226.266,18.966 -226.266,14.137C-226.266,9.308 -229.834,5.335 -235.442,5.335M-247.712,22.704L-247.712,22.237C-248.477,22.237 -248.623,22.042 -248.623,21.147L-248.623,7.127C-248.623,6.231 -248.477,6.036 -247.712,6.036L-247.712,5.569L-251.791,5.569L-251.791,6.036C-251.026,6.036 -250.88,6.231 -250.88,7.127L-250.88,21.147C-250.88,22.042 -251.026,22.237 -251.791,22.237L-251.791,22.704L-247.712,22.704ZM-254.849,6.621L-255.286,6.465C-255.432,6.698 -255.614,6.893 -255.869,6.893C-256.196,6.893 -256.852,6.504 -257.799,6.153C-259.255,5.608 -260.42,5.335 -262.496,5.335C-267.448,5.335 -271.526,8.607 -271.526,14.176C-271.526,19.784 -267.594,22.938 -262.642,22.938C-258.017,22.938 -255.978,20.407 -255.104,20.407C-254.958,20.407 -254.776,20.446 -254.412,20.757L-254.012,20.446L-256.561,16.863L-256.925,17.096C-256.852,17.291 -256.779,17.603 -256.779,17.875C-256.779,18.537 -258.927,20.524 -262.751,20.524C-266.538,20.524 -269.123,17.797 -269.123,14.176C-269.123,10.554 -266.611,7.516 -262.423,7.516C-259.801,7.516 -256.998,9.113 -256.998,9.736C-256.998,9.931 -256.998,10.203 -257.07,10.398L-256.633,10.632L-254.849,6.621ZM-277.025,15.461L-284.125,15.461L-280.702,7.283L-277.025,15.461ZM-285.691,22.704L-285.691,22.237C-286.419,22.237 -286.674,22.081 -286.674,21.77C-286.674,21.536 -286.383,21.069 -286.201,20.601L-284.962,17.642L-276.114,17.642L-274.621,20.913C-274.512,21.186 -274.403,21.419 -274.403,21.77C-274.403,22.081 -274.621,22.237 -275.495,22.237L-275.495,22.704L-270.907,22.704L-270.907,22.237C-271.672,22.237 -271.89,21.809 -272.036,21.458L-278.263,7.283C-278.372,7.01 -278.517,6.776 -278.517,6.504C-278.517,6.153 -278.044,6.036 -277.68,6.036L-277.68,5.569L-283.579,5.569L-283.579,5.959C-282.923,5.997 -282.669,6.27 -282.669,6.504C-282.669,6.698 -282.705,6.815 -282.851,7.166L-288.604,21.263C-288.822,21.848 -289.004,22.237 -289.769,22.237L-289.769,22.704L-285.691,22.704ZM-290.497,7.438L-290.934,7.244C-291.007,7.322 -291.08,7.516 -291.371,7.516C-291.735,7.516 -294.575,5.335 -298.581,5.335C-304.516,5.335 -307.829,9.892 -307.829,14.059C-307.829,19.745 -303.86,22.938 -298.508,22.938C-295.813,22.938 -292.318,21.926 -290.06,19.589L-290.06,19.199C-290.424,19.122 -290.57,18.966 -290.57,18.537L-290.57,15.928C-290.57,15.461 -290.424,15.305 -290.06,15.227L-290.06,14.76L-296.287,14.76C-297.015,14.76 -297.197,14.487 -297.197,14.137L-297.634,14.137L-297.634,17.875L-297.197,17.875C-297.197,17.213 -297.015,16.941 -296.287,16.941L-292.973,16.941L-292.973,19.277C-294.175,20.29 -296.687,20.757 -298.18,20.757C-303.023,20.757 -305.426,17.875 -305.426,14.448C-305.426,10.398 -302.695,7.516 -298.69,7.516C-294.539,7.516 -292.245,9.736 -292.245,10.242C-292.245,10.398 -292.281,10.554 -292.318,10.671L-291.881,10.865L-290.497,7.438ZM-310.924,22.704L-310.924,22.237C-311.689,22.237 -311.834,22.042 -311.834,21.147L-311.834,7.127C-311.834,6.231 -311.689,6.036 -310.924,6.036L-310.924,5.569L-315.002,5.569L-315.002,6.036C-314.238,6.036 -314.092,6.231 -314.092,7.127L-314.092,21.147C-314.092,22.042 -314.238,22.237 -315.002,22.237L-315.002,22.704L-310.924,22.704ZM-317.005,4.634L-317.442,4.634C-317.442,5.296 -317.624,5.569 -318.352,5.569L-332.043,5.569C-332.772,5.569 -332.954,5.296 -332.954,4.634L-333.391,4.634L-333.391,8.685L-332.954,8.685C-332.954,8.023 -332.772,7.75 -332.043,7.75L-326.4,7.75L-326.4,21.147C-326.4,22.042 -326.545,22.237 -327.31,22.237L-327.31,22.704L-323.086,22.704L-323.086,22.237C-323.851,22.237 -323.996,22.042 -323.996,21.147L-323.996,7.75L-318.352,7.75C-317.624,7.75 -317.442,8.023 -317.442,8.685L-317.005,8.685L-317.005,4.634ZM-349.667,21.731L-349.23,21.887C-349.157,21.614 -348.939,21.302 -348.575,21.302C-347.81,21.302 -345.261,22.938 -341.511,22.938C-335.976,22.938 -333.573,21.069 -333.573,17.408C-333.573,10.398 -346.645,15.071 -346.645,10.437C-346.645,8.996 -345.88,7.516 -342.13,7.516C-339.253,7.516 -336.34,8.724 -336.34,9.541C-336.34,9.775 -336.377,9.892 -336.413,10.009L-335.976,10.203L-334.629,6.387L-335.102,6.192C-335.321,6.659 -335.466,6.737 -335.685,6.737C-336.267,6.737 -338.197,5.335 -342.02,5.335C-345.662,5.335 -348.902,6.815 -348.902,10.749C-348.902,17.953 -335.83,13.046 -335.83,17.992C-335.83,19.745 -337.869,20.757 -341.147,20.757C-344.642,20.757 -347.883,19.277 -347.883,18.421C-347.883,18.265 -347.847,18.07 -347.81,17.914L-348.247,17.797L-349.667,21.731ZM-366.708,21.147C-366.708,22.042 -366.854,22.237 -367.546,22.237L-367.546,22.704L-352.471,22.704C-351.742,22.704 -351.56,22.977 -351.56,23.639L-351.123,23.639L-351.123,19.589L-351.56,19.589C-351.56,20.251 -351.742,20.524 -352.471,20.524L-364.305,20.524L-364.305,14.994L-356.258,14.994C-355.529,14.994 -355.347,15.266 -355.347,15.928L-354.91,15.928L-354.91,11.878L-355.347,11.878C-355.347,12.54 -355.529,12.813 -356.258,12.813L-364.305,12.813L-364.305,7.75L-352.871,7.75C-352.143,7.75 -351.961,8.023 -351.961,8.685L-351.524,8.685L-351.524,4.634L-351.961,4.634C-351.961,5.296 -352.143,5.569 -352.871,5.569L-367.546,5.569L-367.546,6.036C-366.854,6.036 -366.708,6.231 -366.708,7.127L-366.708,21.147ZM-385.606,6.036C-385.024,6.036 -384.732,6.309 -384.514,6.815L-378.615,20.329C-378.287,21.108 -378.069,21.575 -378.069,21.887C-378.069,22.159 -378.287,22.237 -378.724,22.237L-378.724,22.704L-374.5,22.704L-374.5,22.237C-375.083,22.276 -375.301,22.042 -375.301,21.731C-375.301,21.497 -375.119,21.03 -375.01,20.796L-369.439,6.659C-369.293,6.309 -369.038,6.036 -368.711,6.036L-368.711,5.569L-372.425,5.569L-372.425,6.036C-371.842,6.036 -371.624,6.27 -371.624,6.621C-371.624,6.815 -371.733,7.166 -371.842,7.438L-376.576,19.55L-381.746,7.75C-381.892,7.36 -382.147,6.932 -382.147,6.698C-382.147,6.192 -381.746,5.997 -381.309,6.036L-381.309,5.569L-385.606,5.569L-385.606,6.036ZM-400.28,22.704L-400.28,22.237C-401.045,22.237 -401.263,22.042 -401.263,21.147L-401.263,8.607L-390.959,21.186C-390.704,21.497 -390.522,21.653 -390.522,21.887C-390.522,22.12 -390.594,22.237 -391.541,22.237L-391.541,22.704L-386.662,22.704L-386.662,22.237C-387.427,22.237 -387.645,22.042 -387.645,21.147L-387.645,7.127C-387.645,6.231 -387.427,6.036 -386.662,6.036L-386.662,5.569L-390.667,5.569L-390.667,6.036C-389.903,6.036 -389.684,6.231 -389.684,7.127L-389.684,19.16L-399.552,7.049C-399.807,6.737 -399.952,6.543 -399.952,6.387C-399.952,6.192 -399.734,6.036 -398.969,6.036L-398.969,5.569L-404.286,5.569L-404.286,6.036C-403.521,6.036 -403.302,6.231 -403.302,7.127L-403.302,21.147C-403.302,22.042 -403.521,22.237 -404.286,22.237L-404.286,22.704L-400.28,22.704ZM-408.4,22.704L-408.4,22.237C-409.092,22.237 -409.274,21.848 -409.274,21.302L-409.274,3.622C-409.274,3.077 -409.092,2.687 -408.4,2.687L-408.4,2.22L-413.206,2.22L-413.206,2.687C-412.515,2.687 -412.332,3.077 -412.332,3.622L-412.332,21.302C-412.332,21.848 -412.515,22.237 -413.206,22.237L-413.206,22.704L-408.4,22.704ZM-440.151,21.147C-440.151,22.042 -440.297,22.237 -440.989,22.237L-440.989,22.704L-425.914,22.704C-425.186,22.704 -425.004,22.977 -425.004,23.639L-424.567,23.639L-424.567,19.589L-425.004,19.589C-425.004,20.251 -425.186,20.524 -425.914,20.524L-437.748,20.524L-437.748,14.994L-429.701,14.994C-428.973,14.994 -428.791,15.266 -428.791,15.928L-428.354,15.928L-428.354,11.878L-428.791,11.878C-428.791,12.54 -428.973,12.813 -429.701,12.813L-437.748,12.813L-437.748,7.75L-426.315,7.75C-425.586,7.75 -425.404,8.023 -425.404,8.685L-424.967,8.685L-424.967,4.634L-425.404,4.634C-425.404,5.296 -425.586,5.569 -426.315,5.569L-440.989,5.569L-440.989,6.036C-440.297,6.036 -440.151,6.231 -440.151,7.127L-440.151,21.147ZM-459.632,21.147C-459.632,22.042 -459.778,22.237 -460.542,22.237L-460.542,22.704L-451.73,22.704C-445.977,22.704 -443.501,18.966 -443.501,14.137C-443.501,9.308 -445.977,5.569 -451.73,5.569L-460.542,5.569L-460.542,6.036C-459.778,6.036 -459.632,6.231 -459.632,7.127L-459.632,21.147ZM-457.374,7.75L-452.167,7.75C-447.652,7.75 -445.904,10.632 -445.904,14.137C-445.904,17.642 -447.652,20.524 -452.167,20.524L-457.374,20.524L-457.374,7.75ZM-484.72,14.994L-478.967,14.994L-475.398,20.991C-475.143,21.458 -474.998,21.692 -474.998,21.926C-474.998,22.159 -475.071,22.237 -475.58,22.237L-475.58,22.704L-471.648,22.704L-471.648,22.237C-472.048,22.237 -472.23,22.081 -472.558,21.536L-476.564,14.994C-473.76,14.916 -472.158,13.358 -472.158,10.359C-472.158,7.438 -473.614,5.569 -476.746,5.569L-487.888,5.569L-487.888,6.036C-487.123,6.036 -486.978,6.231 -486.978,7.127L-486.978,21.147C-486.978,22.042 -487.123,22.237 -487.888,22.237L-487.888,22.704L-483.81,22.704L-483.81,22.237C-484.574,22.237 -484.72,22.042 -484.72,21.147L-484.72,14.994ZM-484.72,7.594L-477.328,7.594C-475.18,7.594 -474.561,8.412 -474.561,10.281C-474.561,11.995 -475.216,12.813 -476.964,12.813L-484.72,12.813L-484.72,7.594ZM-499.503,7.516C-495.352,7.516 -492.73,10.437 -492.73,14.098C-492.73,17.797 -495.352,20.757 -499.503,20.757C-503.654,20.757 -506.276,17.797 -506.276,14.098C-506.276,10.437 -503.654,7.516 -499.503,7.516M-499.503,5.335C-505.111,5.335 -508.679,9.308 -508.679,14.137C-508.679,18.966 -505.111,22.938 -499.503,22.938C-493.896,22.938 -490.327,18.966 -490.327,14.137C-490.327,9.308 -493.896,5.335 -499.503,5.335M-511.774,22.704L-511.774,22.237C-512.539,22.237 -512.684,22.042 -512.684,21.147L-512.684,7.127C-512.684,6.231 -512.539,6.036 -511.774,6.036L-511.774,5.569L-515.852,5.569L-515.852,6.036C-515.088,6.036 -514.942,6.231 -514.942,7.127L-514.942,21.147C-514.942,22.042 -515.088,22.237 -515.852,22.237L-515.852,22.704L-511.774,22.704ZM-532.602,14.994L-526.849,14.994L-523.28,20.991C-523.025,21.458 -522.88,21.692 -522.88,21.926C-522.88,22.159 -522.952,22.237 -523.462,22.237L-523.462,22.704L-519.53,22.704L-519.53,22.237C-519.93,22.237 -520.112,22.081 -520.44,21.536L-524.445,14.994C-521.642,14.916 -520.039,13.358 -520.039,10.359C-520.039,7.438 -521.496,5.569 -524.627,5.569L-535.77,5.569L-535.77,6.036C-535.005,6.036 -534.859,6.231 -534.859,7.127L-534.859,21.147C-534.859,22.042 -535.005,22.237 -535.77,22.237L-535.77,22.704L-531.691,22.704L-531.691,22.237C-532.456,22.237 -532.602,22.042 -532.602,21.147L-532.602,14.994ZM-532.602,7.594L-525.21,7.594C-523.062,7.594 -522.443,8.412 -522.443,10.281C-522.443,11.995 -523.098,12.813 -524.846,12.813L-532.602,12.813L-532.602,7.594ZM-554.267,21.147C-554.267,22.042 -554.413,22.237 -555.105,22.237L-555.105,22.704L-540.03,22.704C-539.301,22.704 -539.119,22.977 -539.119,23.639L-538.682,23.639L-538.682,19.589L-539.119,19.589C-539.119,20.251 -539.301,20.524 -540.03,20.524L-551.864,20.524L-551.864,14.994L-543.817,14.994C-543.088,14.994 -542.906,15.266 -542.906,15.928L-542.469,15.928L-542.469,11.878L-542.906,11.878C-542.906,12.54 -543.088,12.813 -543.817,12.813L-551.864,12.813L-551.864,7.75L-540.43,7.75C-539.702,7.75 -539.52,8.023 -539.52,8.685L-539.083,8.685L-539.083,4.634L-539.52,4.634C-539.52,5.296 -539.702,5.569 -540.43,5.569L-555.105,5.569L-555.105,6.036C-554.413,6.036 -554.267,6.231 -554.267,7.127L-554.267,21.147ZM-569.269,7.594L-563.079,7.594C-560.748,7.594 -559.62,8.412 -559.62,10.281C-559.62,11.995 -560.603,13.046 -562.569,13.046L-569.269,13.046L-569.269,7.594ZM-571.527,21.147C-571.527,22.042 -571.672,22.237 -572.437,22.237L-572.437,22.704L-568.359,22.704L-568.359,22.237C-569.123,22.237 -569.269,22.042 -569.269,21.147L-569.269,15.227L-562.387,15.227C-559.692,15.227 -557.216,13.28 -557.216,10.359C-557.216,7.127 -559.073,5.569 -562.678,5.569L-572.437,5.569L-572.437,6.036C-571.672,6.036 -571.527,6.231 -571.527,7.127L-571.527,21.147ZM-577.061,7.127C-577.061,6.231 -576.915,6.036 -576.296,6.036L-576.296,5.569L-580.083,5.569L-580.083,6.036C-579.464,6.036 -579.319,6.231 -579.319,7.127L-579.319,16.746C-579.319,19.706 -581.613,20.757 -585.072,20.757C-588.531,20.757 -590.825,19.706 -590.825,16.746L-590.825,7.127C-590.825,6.231 -590.679,6.036 -590.06,6.036L-590.06,5.569L-593.847,5.569L-593.847,6.036C-593.228,6.036 -593.083,6.231 -593.083,7.127L-593.083,17.252C-593.119,21.614 -588.749,22.938 -585.072,22.938C-581.394,22.938 -577.025,21.614 -577.061,17.252L-577.061,7.127ZM-616.059,20.757L-615.695,20.991C-615.44,20.679 -615.221,20.524 -614.93,20.524C-613.838,20.524 -611.58,22.938 -606.337,22.938C-600.146,22.938 -596.869,19.745 -596.869,16.473C-596.869,6.426 -612.381,13.514 -612.381,8.217C-612.381,6.114 -609.905,4.557 -605.972,4.557C-602.44,4.557 -599.964,6.114 -599.964,6.854C-599.964,7.01 -599.964,7.166 -600.001,7.36L-599.6,7.633L-597.597,3.155L-598.034,2.96C-598.253,3.232 -598.471,3.466 -598.981,3.466C-599.928,3.466 -601.821,1.986 -605.972,1.986C-611.289,1.986 -615.367,4.557 -615.367,8.256C-615.367,17.875 -599.855,10.398 -599.855,16.473C-599.855,18.732 -601.821,20.368 -606.409,20.368C-609.978,20.368 -613.728,18.498 -613.728,17.058C-613.728,16.902 -613.692,16.746 -613.619,16.551L-614.092,16.279L-616.059,20.757ZM-636.122,7.516C-631.971,7.516 -629.349,10.437 -629.349,14.098C-629.349,17.797 -631.971,20.757 -636.122,20.757C-640.273,20.757 -642.895,17.797 -642.895,14.098C-642.895,10.437 -640.273,7.516 -636.122,7.516M-636.122,5.335C-641.729,5.335 -645.298,9.308 -645.298,14.137C-645.298,18.966 -641.729,22.938 -636.122,22.938C-630.514,22.938 -626.946,18.966 -626.946,14.137C-626.946,9.308 -630.514,5.335 -636.122,5.335M-652.944,5.569L-652.944,6.036C-652.179,6.036 -652.034,6.231 -652.034,7.127L-652.034,17.252C-652.034,19.978 -652.944,20.757 -655.711,20.757C-657.823,20.757 -659.789,20.056 -659.789,19.044C-659.789,18.849 -659.753,18.693 -659.717,18.498L-660.154,18.343L-661.61,22.198L-661.246,22.354C-660.991,22.042 -660.809,21.848 -660.518,21.848C-660.117,21.848 -659.535,22.12 -658.733,22.393C-657.969,22.665 -656.986,22.938 -655.675,22.938C-652.288,22.938 -649.776,21.887 -649.776,18.031L-649.776,7.127C-649.776,6.231 -649.63,6.036 -648.866,6.036L-648.866,5.569L-652.944,5.569ZM-677.777,21.147C-677.777,22.042 -677.923,22.237 -678.614,22.237L-678.614,22.704L-663.54,22.704C-662.811,22.704 -662.629,22.977 -662.629,23.639L-662.192,23.639L-662.192,19.589L-662.629,19.589C-662.629,20.251 -662.811,20.524 -663.54,20.524L-675.374,20.524L-675.374,14.994L-667.327,14.994C-666.598,14.994 -666.416,15.266 -666.416,15.928L-665.979,15.928L-665.979,11.878L-666.416,11.878C-666.416,12.54 -666.598,12.813 -667.327,12.813L-675.374,12.813L-675.374,7.75L-663.94,7.75C-663.212,7.75 -663.03,8.023 -663.03,8.685L-662.593,8.685L-662.593,4.634L-663.03,4.634C-663.03,5.296 -663.212,5.569 -663.94,5.569L-678.614,5.569L-678.614,6.036C-677.923,6.036 -677.777,6.231 -677.777,7.127L-677.777,21.147ZM-698.496,21.731L-698.059,21.887C-697.986,21.614 -697.768,21.302 -697.403,21.302C-696.639,21.302 -694.09,22.938 -690.339,22.938C-684.805,22.938 -682.401,21.069 -682.401,17.408C-682.401,10.398 -695.474,15.071 -695.474,10.437C-695.474,8.996 -694.709,7.516 -690.958,7.516C-688.082,7.516 -685.169,8.724 -685.169,9.541C-685.169,9.775 -685.205,9.892 -685.242,10.009L-684.805,10.203L-683.457,6.387L-683.931,6.192C-684.149,6.659 -684.295,6.737 -684.513,6.737C-685.096,6.737 -687.026,5.335 -690.849,5.335C-694.49,5.335 -697.731,6.815 -697.731,10.749C-697.731,17.953 -684.659,13.046 -684.659,17.992C-684.659,19.745 -686.698,20.757 -689.975,20.757C-693.471,20.757 -696.712,19.277 -696.712,18.421C-696.712,18.265 -696.675,18.07 -696.639,17.914L-697.076,17.797L-698.496,21.731ZM-715.573,22.704L-715.573,22.237C-716.338,22.237 -716.556,22.042 -716.556,21.147L-716.556,8.607L-706.251,21.186C-705.996,21.497 -705.814,21.653 -705.814,21.887C-705.814,22.12 -705.887,22.237 -706.834,22.237L-706.834,22.704L-701.955,22.704L-701.955,22.237C-702.719,22.237 -702.938,22.042 -702.938,21.147L-702.938,7.127C-702.938,6.231 -702.719,6.036 -701.955,6.036L-701.955,5.569L-705.96,5.569L-705.96,6.036C-705.195,6.036 -704.977,6.231 -704.977,7.127L-704.977,19.16L-714.845,7.049C-715.1,6.737 -715.245,6.543 -715.245,6.387C-715.245,6.192 -715.027,6.036 -714.262,6.036L-714.262,5.569L-719.578,5.569L-719.578,6.036C-718.814,6.036 -718.595,6.231 -718.595,7.127L-718.595,21.147C-718.595,22.042 -718.814,22.237 -719.578,22.237L-719.578,22.704L-715.573,22.704ZM-732.213,7.516C-728.062,7.516 -725.441,10.437 -725.441,14.098C-725.441,17.797 -728.062,20.757 -732.213,20.757C-736.364,20.757 -738.986,17.797 -738.986,14.098C-738.986,10.437 -736.364,7.516 -732.213,7.516M-732.213,5.335C-737.821,5.335 -741.389,9.308 -741.389,14.137C-741.389,18.966 -737.821,22.938 -732.213,22.938C-726.606,22.938 -723.037,18.966 -723.037,14.137C-723.037,9.308 -726.606,5.335 -732.213,5.335M-746.96,15.85L-747.433,16.162C-747.36,16.279 -747.251,16.512 -747.251,16.707C-747.251,17.759 -750.383,20.29 -753.842,20.29C-758.321,20.29 -762.654,17.058 -762.654,12.345C-762.654,6.971 -758.43,4.634 -754.497,4.634C-750.637,4.634 -747.506,6.621 -747.506,7.477C-747.506,7.711 -747.615,7.867 -747.688,7.984L-747.215,8.217L-744.957,4.05L-745.394,3.739C-745.54,3.933 -745.576,4.089 -745.94,4.089C-746.341,4.089 -747.178,3.544 -748.598,3.038C-750.018,2.531 -751.948,1.986 -754.315,1.986C-761.27,1.986 -765.64,6.698 -765.64,11.956C-765.64,18.226 -760.979,22.938 -754.17,22.938C-748.089,22.938 -745.795,19.667 -745.285,19.667C-745.066,19.667 -744.884,19.745 -744.739,19.939L-744.265,19.589L-746.96,15.85Z" style="fill:rgb(35,31,32);fill-rule:nonzero;"/>
        </g>
        <g transform="matrix(1,0,0,1,831.688,134.417)">
            <path d="M0,43.042L-3.913,45.278C-3.354,46.117 -2.795,47.514 -2.795,48.632C-2.795,58.974 -34.938,70.993 -58.416,70.993C-90,70.993 -117.112,52.825 -117.112,20.682C-117.112,-11.461 -90,-29.628 -58.416,-29.628C-39.969,-29.628 -11.18,-20.125 -9.503,-11.74C-9.224,-10.343 -8.944,-9.224 -8.944,-8.106L-6.149,-6.15L15.652,-39.97L11.459,-43.324C10.621,-42.206 9.223,-39.69 7.546,-39.69C6.149,-39.69 -0.839,-43.324 -12.298,-46.678C-23.758,-50.032 -39.689,-53.665 -58.416,-53.665C-105.652,-53.665 -147.857,-27.951 -147.857,21.521C-147.857,70.993 -105.652,96.707 -58.416,96.707C-22.36,96.707 8.944,74.626 13.136,74.626C14.255,74.626 15.093,74.906 16.211,74.906L18.447,72.67L0,43.042ZM-175.246,95.03L-175.246,89.999C-179.998,89.999 -182.513,88.322 -182.513,84.968L-182.513,-41.926C-182.513,-45.28 -179.998,-46.957 -175.246,-46.957L-175.246,-51.988L-221.643,-51.988L-221.643,-46.957C-216.892,-46.957 -214.376,-45.28 -214.376,-41.926L-214.376,84.968C-214.376,88.322 -216.892,89.999 -221.643,89.999L-221.643,95.03L-175.246,95.03ZM-396.61,84.968C-395.771,83.85 -394.374,82.732 -392.976,82.732C-384.591,82.732 -372.852,96.707 -329.809,96.707C-299.622,96.707 -253.505,87.204 -253.505,48.632C-253.505,-18.448 -366.982,22.918 -366.982,-12.579C-366.982,-24.877 -346.579,-29.628 -330.088,-29.628C-308.566,-29.628 -285.088,-20.405 -279.219,-11.74C-278.101,-10.063 -277.262,-7.827 -276.983,-5.311L-274.188,-4.193L-254.902,-39.131L-258.256,-41.367C-259.374,-40.249 -261.051,-39.69 -263.846,-39.69C-273.349,-39.69 -292.076,-53.665 -330.927,-53.665C-377.324,-53.665 -398.846,-30.467 -398.846,-7.268C-398.846,61.21 -285.368,18.446 -285.368,52.546C-285.368,69.595 -318.07,72.67 -330.368,72.67C-347.976,72.67 -375.647,64.005 -381.237,54.782C-382.076,53.384 -382.355,51.987 -382.355,50.31L-385.15,48.912L-400.523,82.732L-396.61,84.968ZM-447.754,43.042L-451.667,45.278C-451.108,46.117 -450.549,47.514 -450.549,48.632C-450.549,58.974 -482.692,70.993 -506.17,70.993C-537.754,70.993 -564.866,52.825 -564.866,20.682C-564.866,-11.461 -537.754,-29.628 -506.17,-29.628C-487.723,-29.628 -458.935,-20.125 -457.258,-11.74C-456.978,-10.343 -456.699,-9.224 -456.699,-8.106L-453.904,-6.15L-432.102,-39.97L-436.295,-43.324C-437.133,-42.206 -438.531,-39.69 -440.208,-39.69C-441.605,-39.69 -448.593,-43.324 -460.053,-46.678C-471.512,-50.032 -487.444,-53.665 -506.17,-53.665C-553.406,-53.665 -595.611,-27.951 -595.611,21.521C-595.611,70.993 -553.406,96.707 -506.17,96.707C-470.115,96.707 -438.81,74.626 -434.618,74.626C-433.5,74.626 -432.661,74.906 -431.543,74.906L-429.307,72.67L-447.754,43.042Z" style="fill:rgb(176,14,30);fill-rule:nonzero;"/>
        </g>
        <g transform="matrix(1,0,0,1,143.436,108.04)">
            <path d="M0,100.852C0.088,100.936 2.207,100.852 9.526,97.126C17.17,93.185 16.138,108.278 16.138,108.278C24.22,111.733 37.206,110.647 38.252,109.837C39.264,108.977 33.997,106.058 32.303,102.896C30.824,100.096 31.06,94.214 32.303,92.894C36.892,88.02 48.591,91.412 48.591,91.412C48.97,92.538 48.259,99.523 48.259,99.523C47.52,99.126 39.529,98.681 38.793,100.241C38.793,100.241 42.63,101.646 44.224,105.187C46.552,110.389 42.571,118.147 42.571,118.147C26.96,126.917 10.89,117.338 10.257,116.812C9.472,116.051 8.325,111.933 8.325,111.933C-10.549,119.654 -29.989,111.034 -29.989,111.034C-29.788,114.711 -31.556,116.849 -31.556,116.849C-51.385,126.215 -64.412,117.986 -64.412,117.986C-71.891,106.058 -61.404,99.324 -61.404,99.324C-62.914,98.637 -70.994,98.983 -70.994,98.983L-70.994,91.258C-53.203,87.224 -54.098,94.179 -53.921,100.241C-53.725,106.272 -59.984,109.756 -59.984,109.756C-46.244,112.448 -38.087,108.447 -38.087,108.447C-38.087,108.447 -38.178,106.797 -37.974,99.838C-37.796,92.894 -23.289,100.373 -23.289,100.373C-20.16,98.215 -19.987,84.655 -19.987,84.655C-27.3,76.622 -19.628,72.39 -19.628,72.39C-19.256,61.393 -28.792,60.847 -28.792,60.847C-26.76,71.104 -29.346,72.39 -30.829,74.968C-32.285,77.511 -45.327,83.564 -44.553,85.192C-43.854,86.885 -37.221,81.567 -37.221,81.567C-35.039,83.724 -35.221,87.611 -35.221,87.611C-37.796,92.375 -50.092,93.092 -49.357,84.486C-48.551,75.034 -41.46,76.42 -35.403,71.513C-29.346,66.564 -37.046,60.847 -37.046,60.847C-38.503,61.049 -40.908,62.519 -40.908,62.519C-40.713,64.325 -38.333,67.424 -38.333,67.424C-39.418,68.7 -45.134,71.104 -45.134,71.104C-46.052,70.758 -47.518,67.971 -47.518,67.971L-49.161,69.812C-45.467,83.564 -58.15,83.724 -58.15,83.724L-57.784,80.48C-59.984,81.567 -65.488,81.041 -65.488,81.041C-65.855,75.674 -60.898,71.513 -60.898,71.513C-61.445,71.288 -62.351,69.812 -62.351,69.812C-56.874,64.892 -51.519,67.971 -51.519,67.971L-50.449,65.833C-53.58,59.956 -48.242,62.688 -48.242,62.688C-47.867,57.733 -44.391,56.327 -44.391,56.327C-44.553,55.353 -46.595,54.491 -46.595,54.491C-55.224,61.604 -59.795,50.428 -59.795,50.428C-61.624,50.61 -64.412,49.152 -64.412,49.152C-63.843,48.046 -61.824,46.242 -61.824,46.242C-62.566,45.82 -63.843,41.307 -63.843,41.307C-62.914,40.748 -58.349,40.574 -58.349,40.574C-58.349,39.459 -56.874,37.416 -56.874,37.416C-55.754,38.192 -52.994,41.865 -52.994,41.865C-51.911,41.661 -49.919,42.567 -49.919,42.567C-49.919,41.661 -48.637,40.033 -48.637,40.033C-48.421,39.459 -51.519,37.814 -51.519,37.814L-50.799,36.872C-50.092,36.872 -46.595,37.994 -46.595,37.994C-37.221,32.152 -33.583,38.535 -33.583,38.535C-32.467,46.812 -30.268,44.571 -30.268,44.571C-29.888,43.825 -30.626,40.033 -30.626,40.033L-28.049,40.033C-27.695,42.193 -23.476,46.812 -23.476,46.812C-23.665,37.994 -18.348,35.412 -18.348,35.412C-18.887,21.682 -30.268,17.673 -30.268,17.673C-31.012,20.411 -32.137,27.933 -31.191,28.292C-30.268,28.653 -27.3,24.098 -27.3,24.098C-23.843,26.253 -23.125,30.645 -23.125,30.645C-35.039,37.994 -38.879,26.609 -38.879,26.609C-39.642,26.82 -46.398,27.933 -46.398,27.933C-47.518,26.609 -45.134,20.255 -45.134,20.255C-49.563,20.055 -52.093,24.098 -52.093,24.098C-50.239,33.96 -64.024,35.979 -64.024,35.979C-63.479,35.245 -65.699,33.201 -65.699,33.201C-67.135,33.773 -73.746,34.314 -73.746,34.314C-73.938,29.579 -69.519,26.462 -69.519,26.462C-70.086,25.923 -71.189,22.268 -71.189,22.268C-61.624,17.488 -55.589,21.108 -55.589,21.108C-49.698,15.462 -38.333,13.443 -38.333,13.443C-38.178,12.128 -37.429,10.725 -37.429,10.725C-36.883,8.184 -46.968,8.184 -46.968,8.184C-46.595,7.414 -48.242,3.38 -48.242,3.38C-48.976,3.38 -50.449,4.308 -50.449,4.308C-54.098,9.59 -54.691,5.032 -54.691,5.032C-55.589,4.865 -58.15,6.886 -58.15,6.886C-60.164,11.826 -69.326,11.826 -69.326,11.826C-68.416,10.725 -69.326,9.253 -69.326,9.253C-71.366,9.042 -76.131,5.217 -76.131,5.217C-74.661,3.945 -69.519,1.33 -69.519,1.33C-70.994,0.055 -70.604,-5.416 -70.604,-5.416C-69.719,-4.455 -64.185,-3.361 -64.185,-3.361C-59.085,-3.201 -57.584,2.305 -57.584,2.305C-55.754,2.654 -49.698,-0.788 -49.698,-0.788C-51.001,-6.289 -57.06,-7.244 -57.06,-7.244C-69.869,-1.331 -71.891,-12.714 -71.891,-12.714C-72.829,-13.13 -75.787,-14.399 -75.787,-14.399C-75.019,-15.472 -71.566,-17.093 -71.566,-17.093C-72.471,-17.658 -72.829,-22.073 -72.829,-22.073C-71.566,-22.405 -66.599,-21.679 -66.599,-21.679C-66.931,-22.796 -65.31,-25.357 -65.31,-25.357L-62.734,-19.858C-62.734,-19.858 -55.005,-22.073 -56.154,-11.429C-56.154,-11.429 -55.224,-10.33 -52.994,-9.432C-52.994,-9.432 -51.715,-13.429 -52.645,-15.105C-53.58,-16.743 -55.754,-20.766 -56.301,-20.953C-56.301,-20.953 -52.994,-20.069 -52.29,-19.488C-52.29,-19.488 -50.092,-21.679 -50.092,-22.609C-50.092,-22.609 -44.939,-17.093 -45.327,-13.996C-45.668,-10.884 -49.563,-8.337 -50.449,-7.974L-49.161,-6.841C-49.161,-6.841 -35.939,-12.357 -30.626,-1.556C-30.626,-1.556 -29.888,-6.155 -30.268,-7.244C-30.268,-7.244 -37.454,-8.066 -33.355,-16.959C-31.556,-20.953 -33.756,-22.609 -33.756,-22.609C-33.756,-22.609 -27.895,-21.679 -26.76,-17.282C-26.76,-17.282 -23.665,-19.858 -24.412,-22.609C-24.412,-22.609 -18.867,-20.232 -20.363,-12.157C-21.261,-7.244 -25.484,-6.498 -25.484,-6.498C-25.484,-6.498 -28.435,2.821 -23.476,10.535C-23.476,10.535 -18.887,6.512 -18.348,4.865C-18.348,4.865 -21.989,-0.63 -19.256,-4.659C-16.513,-8.686 -14.111,-7.587 -13.013,-8.508C-13.013,-8.508 -9.532,-12.714 -9.347,-13.855C-9.347,-13.855 -8.057,-10.164 -8.626,-9.234C-8.626,-9.234 -3.849,-10.514 -2.939,-10.514C-2.939,-10.514 -3.303,-5.935 -3.849,-5.416C-3.849,-5.416 -1.286,-3.036 0.712,-3.731C0.712,-3.731 -1.809,-0.63 -3.303,-0.269C-3.303,-0.269 -5.504,9.994 -16.162,7.608C-16.162,7.608 -20.16,11.826 -20.557,13.113C-20.557,13.113 -16.162,18.977 -16.162,20.411C-16.162,20.411 -10.465,18.572 -8.976,19.683C-8.976,19.683 0.712,15.825 1.096,-1.331L3.676,-1.901C3.676,-1.901 2.56,-7.244 3.676,-10.514C3.676,-10.514 -6.038,-20.953 0.364,-24.233C0.364,-24.233 2.001,-21.127 4.018,-20.232C4.018,-20.232 7.346,-21.127 8.062,-23.34C8.062,-23.34 12.105,-17.841 10.645,-13.13C10.645,-13.13 6.252,-6.841 7.159,-3.612C7.159,-3.612 11.379,-8.686 19.086,-7.395C19.086,-7.395 18.16,-13.651 22.05,-18.567C22.05,-18.567 22.579,-15.261 24.568,-13.651C26.629,-11.997 26.244,-9.432 25.679,-8.686L28.081,-9.597C28.081,-9.597 25.118,-18.217 32.303,-20.232C32.303,-20.232 33.95,-24.824 35.04,-26.065L37.794,-22.95C37.794,-22.95 40.912,-25.889 42.387,-25.889C42.387,-25.889 44.029,-21.127 43.653,-20.232C43.653,-20.232 46.972,-19.858 47.905,-20.401C47.905,-20.401 44.414,-14.555 43.653,-14.166C43.653,-14.166 45.683,-4.321 31.155,-6.841L26.629,-2.842C26.629,-2.842 28.081,-0.63 28.081,0.055C28.081,0.055 36.501,-2.842 37.977,-4.321C37.977,-4.321 37.977,0.802 37.223,2.305C37.223,2.305 42.387,3.75 44.029,3.184C44.029,3.184 42.005,9.253 37.223,9.994C37.223,9.994 38.909,12.563 35.222,12.022C35.222,12.022 31.918,13.113 31.155,14.173C31.155,14.173 29.002,11.063 27.853,10.878C27.853,10.878 22.941,12.71 21.086,11.826C21.086,11.826 22.05,8.886 21.28,8.184L20.567,7.414L21.28,8.184C21.28,8.184 14.487,8.481 14.859,11.446C14.859,11.446 15.781,16.747 15.781,17.488C15.781,17.488 20.898,18.401 21.809,19.125L22.05,26.081L16.325,24.231C16.325,24.231 14.487,33.773 8.255,32.671C2.001,31.616 0.712,28.653 5.87,20.055C5.87,20.055 -4.58,21.108 -4.438,35.412C-4.438,35.412 -3.849,36.69 -1.809,35.979C-1.809,35.979 -2.201,39.62 -2.746,40.906C-2.746,40.906 2.914,37.064 7.346,38.722C7.346,38.722 10.445,34.314 16.138,36.345C16.138,36.345 19.086,36.345 18.507,28.991L21.28,28.811L21.473,32.889C21.473,32.889 26.056,30.645 26.629,29.579C26.629,29.579 24.22,22.965 30.824,20.576C30.824,20.576 33.05,17.138 34.135,16.747C34.135,16.747 35.578,21.682 35.398,22.795C35.398,22.795 40.912,21.863 42.209,22.268C42.209,22.268 41.455,26.609 40.553,27.76C40.553,27.76 43.297,28.991 44.224,30.311C44.224,30.311 34.299,35.795 29.533,33.773C29.533,33.773 23.295,35.61 22.18,37.064C22.18,37.064 24.955,38.722 29.339,35.979L29.339,38.722L31.402,38.722C31.402,38.722 42.005,31.385 46.23,40.906C46.23,40.906 48.97,42.193 50.635,41.439C50.635,41.439 49.895,44.766 48.427,45.099C48.427,45.099 50.635,48.605 50.635,50.428C50.635,50.428 47.52,51.345 45.683,50.61C45.683,50.61 45.683,54.491 45.304,55.568C45.304,55.568 41.643,52.812 41.085,51.345C41.085,51.345 31.155,52.812 30.824,42.952L28.437,42.193C28.437,42.193 25.481,44.39 24.22,44.766C24.22,44.766 27.503,46.585 28.237,47.481C28.237,47.481 26.629,51.715 25.34,51.88C25.34,51.88 13.933,46.053 10.829,50.037C10.829,50.037 16.509,53.371 17.793,54.803C17.793,54.803 29.711,52.089 27.503,62.132L28.237,63.242C28.237,63.242 34.135,63.803 36.157,74.244C36.157,74.244 29.002,76.092 27.147,65.833C27.147,65.833 26.409,66.155 25.862,66.72C25.862,66.72 26.629,68.554 26.244,69.254C26.244,69.254 34.498,77.363 23.484,86.124C23.484,86.124 19.41,81.567 19.41,79.508C19.41,79.508 14.487,77.931 12.105,80.612C12.105,80.612 11.558,71.513 22.763,70.543L22.941,68.554C22.941,68.554 19.086,70.934 17.435,71.288C17.435,71.288 13.736,71.288 10.645,66.898C10.645,66.898 21.649,63.242 20.567,61.982C19.41,60.691 7.544,68.185 -1.093,63.803C-1.093,63.803 -2.033,65.438 -3.303,65.611C-3.303,65.611 -7.157,72.56 -4.58,79.35C-4.58,79.35 3.944,85.297 -2.481,91.603C-2.481,91.603 -1.472,100.096 0,100.852M-47.39,-5.733C-45.842,-0.249 -40.385,-5.548 -38.223,-3.823C-27.992,4.865 -41.376,15.027 -37.559,25.967C-36.686,28.197 -35.268,30.032 -33.021,31.094C-30.565,31.899 -27.193,31.156 -25.133,29.803C-24.779,28.567 -26.086,27.52 -26.972,26.271C-27.818,27.001 -28.691,28.142 -29.358,28.811C-30.238,30.58 -32.48,30.223 -32.848,28.472C-34.227,17.673 -25.303,4.11 -35.201,-5.042C-38.753,-7.732 -43.763,-7.675 -47.39,-5.733M13.816,-6.436C-4.226,1.533 15.687,17.701 8.194,31.103C9.867,31.413 11.874,30.562 12.785,29.068C16.437,20.576 13.22,11.228 11.236,3.077C10.512,0.235 10.792,-1.507 12.98,-3.621C15.198,-5.515 18.249,-3.872 19.304,-2.446C19.834,-2.842 21.717,-4.468 21.717,-5.205C19.71,-6.7 16.569,-6.964 13.816,-6.436M13.349,-2.117C12.312,-0.442 12.293,1.801 13.297,3.554C14.89,2.318 17.268,-0.027 18.29,-1.443C17.435,-2.983 14.897,-4.219 13.349,-2.117M-42.044,-2.328C-41.181,-0.442 -38.359,-0.227 -36.261,0.292L-37.032,-1.039C-38.476,-3.1 -39.849,-3.619 -42.044,-2.328M25.401,-1.855C24.181,-0.834 22.444,1.209 22.359,2.074C22.444,3.457 23.508,7.676 22.815,10.282C24.05,10.797 25.643,10.025 26.7,9.735C27.969,5.986 28.437,0.791 25.401,-1.855M21.117,3.184L20.052,4.768C20.724,4.975 20.898,5.03 21.553,4.737L21.117,3.184ZM5.812,10.52L5.51,8.224L4.768,10.52L5.812,10.52ZM16.826,18.775L16.449,20.715C16.269,24.056 19.668,23.602 20.887,24.309L20.887,20.715C19.811,19.032 18.401,19.276 16.826,18.775M4.372,27.799C4.768,28.554 4.768,30.355 6.221,29.999C8.404,28.197 8.404,24.947 8.06,22.377C6.221,23.464 4.579,25.82 4.372,27.799M-41.158,37.655C-43.391,38.691 -47.21,40.064 -47.21,42.824C-45.987,44.918 -44.269,42.692 -43.063,41.94C-40.293,39.362 -37.164,41.632 -34.227,42.325C-33.849,41.111 -34.909,39.879 -35.593,38.847C-36.994,37.303 -39.087,37.655 -41.158,37.655M24.375,39.556C19.152,41.94 15.346,35.755 10.836,38.511C14.998,40.392 18.973,44.247 24.178,42.325C25.401,41.632 27.315,40.757 27.138,38.847L26.247,38.847L24.375,39.556ZM-18.61,39.556C-19.497,40.064 -19.84,40.906 -19.661,41.94C-19.282,42.692 -18.795,44.247 -18.112,43.737C-17.773,42.162 -17.773,40.574 -18.61,39.556M2.33,41.111C5.994,41.632 8.202,44.918 8.915,48.189C9.789,47.661 11.028,47.855 11.715,46.825C12.058,44.758 11.173,43.218 9.956,41.81C8.062,40.259 4.238,39.202 2.33,41.111M-0.621,43.363C-1.661,44.247 -3.541,44.758 -3.022,46.456C-0.962,45.943 1.299,45.041 2.517,43.363C1.63,42.969 0.297,43.218 -0.621,43.363M-44.269,44.758C-44.958,45.418 -44.638,46.825 -44.269,47.481C-45.842,50.61 -43.221,53.026 -41.158,54.552C-38.041,55.298 -34.909,55.298 -32.661,53.193C-33.203,51.842 -33.849,50.294 -35.268,49.399C-38.041,52.874 -41.158,48.545 -43.59,47.481C-43.221,47.34 -43.063,46.601 -42.528,46.973C-41.694,46.601 -39.917,46.082 -40.118,44.758C-41.508,43.363 -42.878,43.363 -44.269,44.758M15.67,44.247C14.804,44.52 13.269,44.382 13.607,45.796C16.569,46.825 19.834,47.481 22.633,48.884C23.834,49.399 26.247,50.439 26.247,47.997C23.15,45.796 19.514,44.52 15.67,44.247M-20.541,44.758C-21.084,46.601 -20.694,48.884 -20.179,50.61C-16.865,57.66 -9.435,58.92 -3.541,61.668C-3.182,61.338 -3.182,60.805 -3.022,60.28C-5.101,51.642 -15.515,50.091 -20.541,44.758M-39.783,47.997C-39.087,48.545 -38.543,49.399 -37.694,49.055C-37.334,48.545 -36.646,48.369 -36.823,47.855C-37.164,46.082 -39.418,46.31 -39.783,47.997M-1.807,55.586C-2.503,57.024 -0.76,57.134 0.088,57.519C3.743,58.579 8.782,58.406 11.543,56.096C7.9,53.723 1.85,53.415 -1.807,55.586M20.052,56.343C13.091,57.891 5.994,62.022 -1.291,59.435C-1.807,60.652 -1.107,61.866 -0.231,62.541C7.392,65.644 14.804,61.338 22.111,59.75C22.974,59.956 23.484,60.805 23.484,61.668C21.585,65.149 17.435,66.005 13.992,67.186C13.79,67.927 14.471,68.075 14.804,68.616C17.6,70.668 20.187,67.413 22.633,66.005C24.867,63.953 27.138,61.668 26.433,58.696C25.213,56.343 22.446,56.488 20.052,56.343M-44.269,58.406C-45.987,60.28 -47.046,62.888 -46.358,65.644C-45.652,66.656 -45.467,68.616 -44.114,68.75C-38.041,67.688 -43.907,63.06 -43.063,59.75C-42.878,58.579 -41.844,57.134 -40.458,56.857C-42.022,57.024 -43.391,57.372 -44.269,58.406M-33.536,60.28C-34.227,61.668 -32.338,63.405 -31.786,64.98C-29.544,73.591 -41.158,75.019 -45.652,79.508C-47.39,81.373 -48.421,83.645 -48.091,86.215C-47.39,87.97 -45.467,89.529 -43.59,89.707C-41.158,89.318 -38.543,88.794 -36.823,86.74C-36.3,85.697 -36.823,84.14 -37.847,83.817C-39.917,85.39 -41.844,87.123 -44.638,86.74C-45.467,86.615 -46.517,85.917 -46.358,84.866C-43.391,79.314 -36.464,78.63 -32.155,73.963C-30.066,71.332 -29.206,68.216 -29.888,64.776C-30.747,63.242 -30.91,59.956 -33.536,60.28M-19.401,74.772L-20.155,75.571L-19.401,76.163L-19.401,74.772ZM-21.084,77.438L-21.084,79.671C-18.795,85.917 -11.333,83.973 -6.152,85.559C-4.735,86.089 -3.28,87.97 -2.176,88.999C-1.867,76.677 -15.325,82.411 -21.084,77.438M-69.27,92.465C-69.317,94.179 -69.497,96.334 -69.191,97.522C-64.523,97.007 -57.953,97.718 -55.468,99.827L-55.878,94.693C-58.48,90.352 -64.79,91.819 -69.27,92.465M35.841,92.831C32.563,93.332 33.079,98.437 33.463,100.373C37.335,97.951 42.558,96.794 46.718,97.669C46.933,97.689 46.972,94.434 46.972,92.894C46.972,92.894 40.856,91.051 35.841,92.831M-35.27,98.989C-35.236,100.076 -32.301,101.89 -31.021,104.246C-29.741,106.599 -29.931,108.746 -29.931,108.799C-19.538,113.658 -2.373,115.022 8.191,109.692C8.325,105.13 9.526,101.915 13.091,100.386C13.607,99.834 12.764,98.723 11.897,98.723C4.596,101.629 -2.33,105.253 -10.995,105.069C-20.423,105.88 -27.175,99.266 -35.27,98.989M-59.641,99.785C-61.642,102.15 -64.928,103.877 -65.243,107.895C-65.31,108.946 -61.359,108.977 -61.294,108.946C-58.912,107.083 -56.675,106.272 -55.695,102.15C-55.892,100.922 -58.378,99.834 -59.641,99.785M-36.103,101.708C-36.103,101.708 -36.104,107.873 -36.17,107.873C-34.789,107.382 -32.48,106.855 -32.285,106.096C-32.032,105.069 -34.513,102.412 -36.103,101.708M10.836,106.569C11.028,106.969 12.575,107.503 13.79,107.647C14.998,107.503 13.996,103.111 14.166,102.196C14.015,102.231 10.836,102.805 10.836,106.569M-65.127,110.29C-64.977,112.784 -64.476,115.279 -62.398,117.052C-53.77,120.903 -42.48,119.475 -34.328,116.174C-31.313,115.017 -31.89,112.98 -31.955,108.33C-41.694,112.796 -54.961,114.173 -65.127,110.29M10.13,108.557C10.13,108.557 9.313,113.178 12.058,115.796C21.92,121.077 33.372,121.427 41.767,116.434C42.293,114.727 43.156,112.274 43.278,110.464C34.065,114.689 18.322,111.876 10.13,108.557M40.724,108.931C41.475,108.931 42.922,108.341 42.922,108.341C44.588,105.187 36.979,100.852 36.979,100.852C36.979,100.852 35.367,101.635 34.755,101.89C32.674,102.634 40.634,108.931 40.724,108.931" style="fill:rgb(178,180,182);fill-rule:nonzero;"/>
        </g>
        <g transform="matrix(1,0,0,1,0,-0.073)">
            <rect x="914.423" y="80.824" width="3.882" height="195.59" style="fill:rgb(35,31,32);"/>
        </g>
        <rect x="918.305" y="0" width="357.165" height="357.165" style="fill:white;"/>
        <g transform="matrix(0.116261,-0.029722,0.029722,0.116261,908.293368,55.66236)">
            <g transform="matrix(254.49379,0,0,254.49379,1168.112108,499.471006)">
            </g>
            <text x="984.325px" y="499.471px" style="font-family:'Helvetica';font-size:254.494px;fill:rgb(247,147,29);">C</text>
        </g>
        <g transform="matrix(0.100335,-0.065824,0.065824,0.100335,897.00533,63.267747)">
            <g transform="matrix(254.495077,0,0,254.495077,883.553412,801.79617)">
            </g>
            <text x="812.847px" y="801.796px" style="font-family:'Helvetica';font-size:254.495px;fill:rgb(247,147,29);">I</text>
        </g>
        <g transform="matrix(0.076519,-0.092438,0.092438,0.076519,882.376323,78.805852)">
            <g transform="matrix(254.494408,0,0,254.494408,740.143805,1012.047141)">
            </g>
            <text x="570.398px" y="1012.047px" style="font-family:'Helvetica';font-size:254.494px;fill:rgb(247,147,29);">S</text>
        </g>
        <g transform="matrix(0.032608,-0.115485,0.115485,0.032608,874.013639,102.66248)">
            <g transform="matrix(254.49338,0,0,254.49338,341.398885,1170.071233)">
            </g>
            <text x="157.612px" y="1170.071px" style="font-family:'Helvetica';font-size:254.493px;fill:rgb(247,147,29);">C</text>
        </g>
        <g transform="matrix(1,0,0,1,1059.1377,178.264)">
            <path d="M0,-109.777C30.314,-109.777 54.888,-85.203 54.888,-54.889C54.888,-24.575 30.314,0 0,0C-30.314,0 -54.889,-24.575 -54.889,-54.889" style="fill:none;fill-rule:nonzero;stroke:rgb(247,147,29);stroke-width:3.42px;"/>
        </g>
        <g transform="matrix(1,0,0,1,1134.8093,68.4873)">
            <path d="M0,109.777C-30.314,109.777 -54.888,85.202 -54.888,54.888C-54.888,24.574 -30.314,0 0,0C30.314,0 54.889,24.574 54.889,54.888" style="fill:none;fill-rule:nonzero;stroke:rgb(247,147,29);stroke-width:3.42px;"/>
        </g>
        <g transform="matrix(0.114585,-0.035641,0.035641,0.114585,999.548849,148.213173)">
            <g transform="matrix(254.495855,0,0,254.495855,1218.360741,680.727676)">
            </g>
            <text x="1034.572px" y="680.728px" style="font-family:'Helvetica';font-size:254.496px;fill:rgb(247,147,29);">H</text>
        </g>
        <g transform="matrix(0.036879,-0.114193,0.114193,0.036879,1031.376108,130.176608)">
            <g transform="matrix(254.491785,0,0,254.491785,389.161529,1343.303943)">
            </g>
            <text x="219.417px" y="1343.304px" style="font-family:'Helvetica';font-size:254.492px;fill:rgb(247,147,29);">B</text>
        </g>
        <g transform="matrix(0.084732,-0.084974,0.084974,0.084732,1017.944356,143.11115)">
            <g transform="matrix(254.495651,0,0,254.495651,885.410198,1116.492671)">
            </g>
            <text x="701.622px" y="1116.493px" style="font-family:'Helvetica';font-size:254.496px;fill:rgb(247,147,29);">U</text>
        </g>
        <g transform="matrix(0.12,0,0,0.12,834.648056,183.878263)">
            <text x="1669.714px" y="358.387px" style="font-family:'Helvetica';font-size:208.333px;fill:rgb(35,31,32);">B<tspan x="1811.31px 1871.832px 2036.52px 2155.024px 2319.713px 2484.401px 2544.922px " y="358.387px 358.387px 358.387px 358.387px 358.387px 358.387px 358.387px ">IOLOGÍA</tspan></text>
            <text x="1163.464px" y="593.387px" style="font-family:'Helvetica';font-size:208.333px;fill:rgb(35,31,32);">C<tspan x="1318.646px 1485.425px 1663.7px 1807.387px 1962.57px 2079.198px 2222.886px 2378.069px 2440.681px 2607.46px 2762.643px 2906.33px 3019.297px 3069.714px " y="593.387px 593.387px 593.387px 593.387px 593.387px 593.387px 593.387px 593.387px 593.387px 593.387px 593.387px 593.387px 593.387px 593.387px ">OMPUTACIONAL Y</tspan></text>
            <g transform="matrix(208.333333,0,0,208.333333,3420.244028,828.386979)">
            </g>
            <text x="948.464px" y="828.387px" style="font-family:'Helvetica';font-size:208.333px;fill:rgb(35,31,32);">B<tspan x="1091.346px 1153.154px 1319.128px 1380.936px 1535.313px 1666.498px 1832.472px 1986.849px 2164.319px 2307.201px 2438.385px 2500.193px 2654.571px 2786.06px 2837.422px 2910.725px 3053.607px 3207.985px 3350.867px " y="828.387px 828.387px 828.387px 828.387px 828.387px 828.387px 828.387px 828.387px 828.387px 828.387px 828.387px 828.387px 828.387px 828.387px 828.387px 828.387px 828.387px 828.387px 828.387px ">IOINFORMÁTICA (BCB)</tspan></text>
        </g>
    </g>
</svg>
